<?xml version="1.0" standalone="no"?>
<!DOCTYPE svg PUBLIC "-//W3C//DTD SVG 20010904//EN"
 "http://www.w3.org/TR/2001/REC-SVG-20010904/DTD/svg10.dtd">
<svg version="1.0" xmlns="http://www.w3.org/2000/svg"
 width="512.000000pt" height="512.000000pt" viewBox="0 0 512.000000 512.000000"
 preserveAspectRatio="xMidYMid meet">

<g transform="translate(0.000000,512.000000) scale(0.100000,-0.100000)"
fill="#FFFFFF" stroke="none">
<path d="M3471 4943 c-16 -13 -31 -53 -54 -142 l-32 -123 -61 -23 c-33 -12
-78 -32 -100 -43 l-40 -20 -108 64 c-70 42 -118 64 -138 64 -27 0 -51 -19
-165 -133 -114 -114 -133 -138 -133 -165 0 -20 22 -67 64 -138 l65 -107 -21
-40 c-11 -23 -31 -68 -43 -101 l-23 -61 -123 -32 c-157 -41 -159 -43 -159
-169 l0 -94 80 0 80 0 0 49 0 49 110 27 c61 15 119 35 129 44 11 9 29 48 41
86 12 39 40 105 61 148 22 43 39 87 39 98 0 12 -27 67 -61 122 l-60 100 69 69
69 69 100 -60 c55 -34 110 -61 122 -61 11 0 55 17 98 39 43 21 110 49 148 61
39 12 77 30 86 41 9 10 29 68 44 129 l27 110 98 0 98 0 27 -110 c15 -61 35
-119 44 -129 9 -11 48 -29 86 -41 39 -12 105 -40 148 -61 43 -22 87 -39 98
-39 12 0 67 27 122 61 l100 60 69 -69 69 -69 -60 -100 c-34 -55 -61 -110 -61
-122 0 -12 17 -56 39 -99 21 -42 48 -108 61 -147 12 -38 30 -77 41 -86 10 -9
68 -29 129 -44 l110 -27 0 -98 0 -98 -110 -27 c-61 -15 -119 -35 -129 -44 -11
-9 -29 -47 -41 -86 -12 -38 -40 -105 -61 -148 -22 -43 -39 -87 -39 -98 0 -12
27 -67 61 -122 l60 -100 -69 -69 -69 -69 -100 60 c-55 34 -110 61 -122 61 -11
0 -55 -17 -98 -39 -43 -21 -109 -49 -148 -61 -38 -12 -77 -30 -86 -41 -9 -10
-29 -68 -44 -129 l-27 -110 -98 0 -98 0 -27 110 c-15 61 -35 119 -44 129 -9
11 -47 29 -86 41 -38 13 -100 37 -137 56 l-67 33 -27 -47 c-15 -26 -34 -57
-41 -69 -14 -21 -12 -23 49 -54 34 -17 90 -42 123 -54 l60 -23 32 -123 c23
-89 38 -129 54 -141 18 -16 45 -18 209 -18 164 0 191 2 209 17 16 13 31 53 54
142 l32 124 50 17 c28 10 73 29 101 43 l51 26 107 -65 c64 -38 119 -64 135
-64 23 0 56 27 165 133 119 115 136 136 136 164 0 21 -21 67 -64 139 l-65 107
21 40 c11 23 31 68 43 101 l23 61 123 32 c89 23 129 38 142 54 15 18 17 45 17
209 0 164 -2 191 -17 209 -13 16 -53 31 -142 54 l-124 32 -17 50 c-10 28 -29
73 -43 101 l-26 51 65 107 c42 71 64 118 64 138 0 27 -19 51 -133 165 -114
114 -138 133 -165 133 -20 0 -67 -22 -138 -64 l-107 -65 -51 26 c-28 14 -73
33 -101 43 l-50 17 -32 124 c-23 89 -38 129 -54 142 -18 15 -45 17 -209 17
-164 0 -191 -2 -209 -17z"/>
<path d="M3540 4386 c-216 -46 -404 -189 -499 -378 -61 -123 -76 -190 -75
-338 1 -107 5 -137 27 -205 38 -115 90 -198 182 -290 131 -131 277 -199 454
-212 434 -30 796 330 767 765 -6 107 -43 228 -97 320 -49 82 -180 211 -262
257 -148 82 -343 113 -497 81z m246 -157 c163 -29 320 -149 393 -302 99 -204
74 -423 -69 -602 -49 -62 -55 -62 -108 -13 -26 25 -56 49 -67 56 -17 9 -18 14
-8 29 7 10 25 41 40 68 27 49 28 54 28 215 l0 165 -34 63 c-38 69 -80 110
-151 144 -66 32 -196 31 -265 -2 -63 -31 -124 -91 -155 -155 -24 -47 -25 -60
-25 -215 0 -161 1 -166 28 -215 15 -27 33 -58 40 -68 10 -16 8 -21 -13 -35
-14 -10 -44 -34 -67 -55 -48 -44 -53 -43 -108 22 -103 125 -148 317 -111 475
38 163 151 304 299 375 119 58 226 73 353 50z m-18 -336 c37 -27 61 -63 68
-100 6 -29 4 -33 -14 -33 -11 0 -42 18 -67 40 -31 27 -56 40 -75 40 -19 0 -44
-13 -75 -40 -47 -40 -85 -52 -85 -26 0 47 45 109 95 132 40 19 119 12 153 -13z
m-56 -263 c18 -11 55 -23 81 -26 48 -7 49 -7 43 -38 -7 -37 -32 -72 -70 -100
-39 -29 -133 -29 -172 0 -38 28 -63 63 -70 100 -6 31 -5 31 43 38 26 3 62 15
78 25 17 11 31 20 32 20 2 1 17 -8 35 -19z m65 -366 c58 -20 136 -71 130 -87
-2 -6 -28 -19 -58 -30 -76 -28 -252 -30 -329 -3 -74 25 -81 33 -50 57 93 73
207 97 307 63z"/>
<path d="M1467 3897 c-19 -18 -28 -51 -50 -187 -15 -90 -29 -164 -30 -165 -6
-2 -213 -87 -222 -91 -6 -2 -71 38 -145 91 -108 77 -140 95 -169 95 -33 0 -50
-15 -223 -188 -173 -173 -188 -190 -188 -223 0 -29 18 -61 95 -169 53 -74 93
-139 91 -145 -4 -9 -89 -216 -91 -222 -1 -1 -75 -15 -165 -30 -136 -22 -169
-31 -187 -50 -23 -22 -23 -25 -23 -293 0 -268 0 -271 23 -293 18 -19 51 -28
187 -50 90 -15 164 -29 165 -30 2 -6 87 -213 91 -222 2 -6 -38 -71 -91 -145
-77 -108 -95 -140 -95 -169 0 -33 15 -50 188 -223 173 -173 190 -188 223 -188
29 0 61 18 169 95 74 53 139 93 145 91 9 -4 216 -89 222 -91 1 -1 15 -75 30
-165 22 -136 31 -169 50 -187 22 -23 25 -23 293 -23 329 0 307 -10 333 150 42
250 33 226 80 240 23 6 75 27 116 46 86 39 58 49 233 -77 161 -115 140 -121
370 109 173 173 188 190 188 223 0 29 -18 61 -95 169 -53 74 -93 139 -91 145
4 9 89 216 91 222 1 1 75 15 165 30 136 22 169 31 187 50 23 22 23 25 23 293
0 268 0 271 -23 293 -18 19 -51 28 -187 50 -90 15 -164 29 -165 30 -2 6 -87
213 -91 222 -2 6 38 71 91 145 77 108 95 140 95 169 0 33 -15 50 -188 223
-230 230 -209 224 -370 109 -175 -126 -147 -116 -233 -77 -41 19 -93 40 -116
46 -47 14 -38 -10 -80 240 -26 160 -4 150 -333 150 -268 0 -271 0 -293 -23z
m467 -154 c2 -10 15 -81 27 -158 18 -111 27 -144 43 -158 12 -10 60 -31 108
-47 48 -16 124 -48 169 -70 52 -26 89 -40 103 -36 11 3 77 46 146 95 l125 90
122 -121 122 -122 -46 -65 c-26 -36 -67 -93 -90 -126 -24 -33 -46 -70 -49 -81
-4 -14 10 -52 36 -103 22 -45 54 -121 70 -169 16 -48 37 -96 47 -108 14 -16
47 -25 158 -43 77 -12 148 -25 158 -27 15 -5 17 -22 17 -174 0 -152 -2 -169
-17 -174 -10 -2 -79 -14 -153 -26 -74 -12 -144 -28 -156 -35 -14 -9 -30 -42
-47 -97 -14 -46 -47 -125 -72 -177 -29 -59 -44 -103 -41 -115 3 -12 46 -77 95
-146 l90 -125 -121 -122 -122 -122 -65 46 c-36 26 -93 67 -126 90 -33 24 -69
46 -81 49 -12 3 -57 -13 -115 -41 -52 -25 -131 -58 -177 -72 -55 -17 -88 -33
-97 -47 -7 -12 -23 -82 -35 -156 -12 -74 -24 -143 -26 -152 -5 -16 -22 -18
-174 -18 -152 0 -169 2 -174 18 -2 9 -15 80 -27 157 -18 111 -27 144 -43 158
-12 10 -60 31 -108 47 -48 16 -123 48 -167 70 -45 22 -87 40 -95 40 -11 0 -99
-58 -257 -171 l-25 -18 -122 122 -121 122 90 125 c49 69 92 135 95 146 4 14
-10 51 -36 103 -22 45 -54 121 -70 169 -16 48 -37 96 -47 108 -14 16 -47 25
-158 43 -77 12 -148 25 -157 27 -16 5 -18 22 -18 174 0 152 2 169 18 174 9 2
80 15 157 27 111 18 144 27 158 43 10 12 31 60 47 108 16 48 48 124 70 169 26
52 40 89 36 103 -3 11 -46 77 -95 146 l-90 125 121 122 122 122 25 -18 c158
-113 246 -171 257 -171 8 0 50 18 95 40 44 22 119 54 167 70 48 16 96 37 108
47 16 14 25 47 43 158 12 77 25 148 27 158 5 15 22 17 174 17 152 0 169 -2
174 -17z"/>
<path d="M1603 3266 c-393 -75 -680 -347 -775 -733 -44 -182 -24 -403 53 -589
197 -474 756 -706 1238 -513 284 113 497 361 573 666 31 124 31 322 0 446 -90
360 -370 636 -723 713 -102 22 -277 27 -366 10z m347 -169 c209 -57 368 -171
480 -344 196 -300 163 -698 -80 -973 l-40 -45 -155 78 -155 77 0 53 c0 50 3
57 46 102 26 26 60 78 78 114 l31 66 0 215 0 215 -32 67 c-44 93 -100 151
-191 196 -72 35 -81 37 -172 37 -91 0 -100 -2 -172 -37 -91 -45 -147 -103
-191 -196 l-32 -67 0 -215 0 -215 32 -67 c17 -37 52 -88 77 -113 43 -43 46
-49 46 -100 l0 -55 -155 -78 -156 -77 -35 40 c-204 232 -263 517 -168 806 88
268 325 470 619 528 67 13 257 6 325 -12z m-116 -309 c26 -8 60 -31 91 -63 57
-56 75 -102 75 -189 0 -54 -1 -56 -20 -46 -11 6 -34 37 -50 70 -48 96 -91 105
-170 35 -61 -54 -117 -84 -187 -101 l-53 -12 0 55 c0 86 18 132 75 188 70 71
145 90 239 63z m121 -457 c30 -8 45 -17 45 -27 0 -108 -125 -224 -240 -224
-115 0 -240 116 -240 223 0 10 11 19 28 22 93 19 155 40 208 69 l59 33 47 -42
c30 -27 64 -47 93 -54z m-115 -431 c0 -17 -14 -40 -40 -65 l-40 -39 -40 39
c-26 25 -40 48 -40 65 0 25 1 25 80 25 79 0 80 0 80 -25z m-184 -230 c97 -94
111 -94 209 1 l73 70 106 -53 c58 -29 106 -56 106 -60 0 -12 -105 -56 -190
-81 -58 -16 -103 -21 -200 -21 -97 0 -142 5 -200 21 -85 25 -190 69 -190 81 0
6 193 109 209 111 3 1 37 -30 77 -69z"/>
<path d="M3707 2218 c-17 -17 -28 -53 -46 -146 -21 -110 -26 -124 -48 -133
-19 -7 -32 -2 -72 26 -27 19 -51 35 -54 35 -7 0 -91 -130 -86 -134 2 -2 39
-27 82 -55 89 -60 101 -61 201 -18 86 37 93 47 118 175 l22 112 96 0 96 0 22
-112 c25 -128 32 -138 118 -175 102 -44 111 -43 210 24 49 33 94 62 100 66 6
3 41 -24 77 -61 l67 -67 -65 -97 c-36 -54 -65 -108 -65 -122 0 -21 30 -100 62
-163 13 -27 35 -35 161 -58 l97 -19 0 -96 0 -96 -97 -19 c-126 -23 -148 -31
-161 -58 -32 -63 -62 -142 -62 -163 0 -14 29 -68 65 -122 l65 -97 -67 -67
c-36 -37 -71 -64 -77 -61 -6 4 -50 33 -98 65 -48 32 -98 58 -111 58 -22 0
-100 -30 -164 -62 -27 -13 -35 -35 -58 -161 l-19 -97 -96 0 -96 0 -19 98 c-23
125 -31 147 -58 160 -64 32 -142 62 -164 62 -13 0 -63 -26 -111 -58 -48 -32
-92 -61 -98 -65 -6 -3 -41 24 -77 61 l-67 67 65 97 c36 54 65 108 65 122 0 21
-30 100 -62 163 -6 12 -26 27 -43 33 -51 17 -275 58 -279 51 -8 -14 -29 -141
-24 -146 2 -3 53 -15 112 -27 148 -29 149 -34 56 -173 -99 -147 -101 -138 63
-302 164 -164 155 -162 304 -62 141 95 142 94 174 -73 34 -176 21 -168 259
-168 238 0 225 -8 259 168 32 166 34 167 176 72 147 -99 138 -101 302 63 164
164 162 155 63 302 -94 141 -94 142 71 175 177 35 169 22 169 260 0 238 8 225
-169 260 -165 33 -165 34 -71 175 99 147 101 138 -63 302 -164 164 -155 162
-302 63 -142 -95 -144 -94 -176 72 -34 176 -21 168 -259 168 -185 0 -192 -1
-213 -22z"/>
<path d="M3801 1664 c-253 -68 -410 -331 -346 -579 50 -190 207 -330 401 -358
329 -48 612 266 529 586 -67 259 -333 419 -584 351z m254 -175 c63 -30 123
-90 155 -154 35 -71 35 -197 0 -270 -31 -64 -91 -124 -155 -155 -73 -35 -199
-35 -270 0 -64 31 -124 91 -155 155 -35 71 -35 197 0 270 42 86 123 152 215
176 54 14 156 3 210 -22z"/>
</g>
</svg>
