<?xml version="1.0" encoding="UTF-8"?>
<svg version="1.1" xmlns="http://www.w3.org/2000/svg" width="3840" height="2160">
<path d="M0 0 C7.14630624 6.36830636 13.91724745 13.06983479 20.6766207 19.84155964 C21.96100131 21.12459156 23.24559999 22.40740519 24.53039521 23.69002192 C28.05278903 27.2077051 31.57208302 30.7284751 35.09086562 34.2497701 C38.92248939 38.08303118 42.75700473 41.91339795 46.59114567 45.74414098 C53.30815705 52.45600386 60.02330421 59.16972736 66.73722765 65.88467907 C76.72109976 75.87007652 86.70781407 85.85262778 96.69506692 95.83464371 C115.56920833 114.69911466 134.43992096 133.56701302 153.30951385 152.43603358 C155.38967618 154.51613116 157.4698401 156.59622715 159.55000541 158.67632174 C160.06621677 159.19251609 160.58242813 159.70871045 161.11428226 160.24054706 C172.56041757 171.68627367 184.00744372 183.13110916 195.45462709 194.57578757 C200.17009333 199.29022545 204.88554042 204.00468249 209.6009914 208.71913563 C210.12202431 209.24005796 210.64305723 209.76098028 211.17987902 210.29768813 C241.03000251 240.14148918 270.8790281 269.98638794 300.72576163 299.83357929 C301.84231953 300.95015298 302.95887746 302.06672664 304.07543541 303.18330029 C309.11646819 308.22440645 314.15749357 313.26552 319.19851687 318.30663563 C321.44638644 320.55454632 323.69425649 322.80245652 325.9421266 325.05036667 C327.06722431 326.17548478 328.1923217 327.30060319 329.31741878 328.42572192 C364.90110742 364.01009093 400.48879396 399.59045706 436.07977221 435.16753506 C445.04894124 444.13320303 454.01809449 453.0988868 462.98715994 462.0646584 C463.53943174 462.61672732 464.09170354 463.16879625 464.66071085 463.73759454 C481.68290273 480.7535712 498.70386948 497.77077258 515.72358534 514.78922581 C516.52513338 515.59071393 516.52513338 515.59071393 517.34287432 516.40839372 C529.07353179 528.13819792 540.80389321 539.86829814 552.53398163 551.59867141 C556.73117546 555.79596173 560.92839152 559.99322983 565.1256185 564.19048701 C566.16976236 565.23463879 567.21390508 566.27879171 568.25804665 567.32294578 C584.89083551 583.95591091 601.52655833 600.58593782 618.1637518 617.21449712 C635.38570454 634.42755761 652.60399735 651.6442711 669.81811241 668.86516986 C679.74225801 678.7930153 689.66916898 688.71807671 699.60005982 698.63917493 C706.23187064 705.26499783 712.86004564 711.89444298 719.48526805 718.52685366 C723.26103624 722.30651331 727.03836357 726.08457761 730.82011912 729.85824738 C734.26318409 733.29401506 737.70157895 736.73438663 741.1363716 740.17842372 C742.36933162 741.41309929 743.60395389 742.64611786 744.84047554 743.87722646 C779.04276779 777.93984913 802.76312011 822.57033328 802.92417943 871.75124254 C802.92636793 874.09431904 802.92366974 876.43736312 802.92091677 878.78043865 C802.92256786 880.49341235 802.9246548 882.20638567 802.92713687 883.91935837 C802.93269453 888.6336826 802.93203275 893.34798864 802.93035928 898.0623151 C802.92962764 903.18867552 802.93465242 908.31503084 802.9389343 913.44138908 C802.94651243 923.61222776 802.94870727 933.78306119 802.94926336 943.9539024 C802.95017719 956.13544024 802.95684532 968.31697322 802.96361018 980.49850897 C802.97928968 1009.24306772 802.98535859 1037.98762491 802.99001721 1066.73218691 C802.99240135 1081.36046928 802.99610502 1095.98875119 803.00005431 1110.61703321 C803.01271876 1157.5534482 803.0235022 1204.48986317 803.02689476 1251.42627985 C803.027057 1253.66925319 803.02722256 1255.91222654 803.02738915 1258.15519988 C803.02772294 1262.65342784 803.02805342 1267.15165579 803.02838371 1271.64988374 C803.0287706 1276.91608028 803.02916021 1282.18227683 803.02955477 1287.44847337 C803.02966719 1288.95569477 803.02977861 1290.46291616 803.02988902 1291.97013756 C803.03343747 1340.36357883 803.04851186 1388.75700525 803.07182677 1437.15044085 C803.08857482 1471.92750462 803.10404616 1506.70456557 803.10856173 1541.48163342 C803.10870196 1542.55508923 803.10870196 1542.55508923 803.10884502 1543.65023102 C803.11086435 1559.36255454 803.11202016 1575.07487801 803.1123736 1590.78720166 C803.11250977 1596.4098932 803.11271876 1602.03258473 803.11296686 1607.65527627 C803.11302842 1609.05401524 803.11308674 1610.45275421 803.11314181 1611.85149318 C803.11406057 1634.11428536 803.1240162 1656.377062 803.13859929 1678.63984907 C803.15364354 1701.69899884 803.15779182 1724.75812759 803.14950633 1747.81728306 C803.14505318 1761.10365516 803.14889817 1774.38996362 803.16474484 1787.67632734 C803.17450842 1796.55913363 803.17330341 1805.44189543 803.16330861 1814.32470133 C803.15792657 1819.38080831 803.15717423 1824.43679325 803.16981733 1829.49289002 C803.30109748 1885.57616243 790.91773183 1933.20111345 751.789489 1975.0830624 C750.99155932 1975.94673428 750.19362963 1976.81040615 749.37152025 1977.7002499 C738.12530958 1989.43986467 724.90072037 1999.06609763 710.789489 2007.0830624 C709.66800463 2007.73661709 708.54652025 2008.39017178 707.3910515 2009.06353115 C674.55655193 2027.72934815 638.82996976 2031.24536798 601.80595133 2031.21169686 C599.24948259 2031.21304444 596.69301404 2031.21482886 594.13654587 2031.21700909 C588.57307659 2031.22104636 583.00961666 2031.22139612 577.44614645 2031.21930315 C569.11732948 2031.21618709 560.78852104 2031.21884783 552.45970468 2031.22260185 C538.26256492 2031.22882967 524.06542822 2031.23030884 509.8682873 2031.22918438 C495.48368853 2031.22805943 481.09909234 2031.22909575 466.71449396 2031.23275685 C465.80546021 2031.2329865 464.89642645 2031.23321615 463.95984622 2031.23345276 C460.25739387 2031.23439442 456.55494152 2031.23535011 452.85248918 2031.23632395 C414.23991764 2031.24646525 375.62734754 2031.24952982 337.01477482 2031.25011607 C332.85933996 2031.25018081 328.70390509 2031.25024875 324.54847023 2031.25031947 C323.00168451 2031.25034498 323.00168451 2031.25034498 321.4236506 2031.250371 C298.56802504 2031.25077954 275.71239976 2031.2529697 252.85677435 2031.25547532 C243.44433447 2031.25650368 234.03189459 2031.25749371 224.61945472 2031.25849157 C223.05944534 2031.25865745 223.05944534 2031.25865745 221.46792062 2031.25882669 C161.87421737 2031.26515036 102.28051431 2031.26927584 42.68681071 2031.26881813 C40.45682911 2031.26880235 38.22684752 2031.26878662 35.99686593 2031.26877092 C25.92877254 2031.26869754 15.86067915 2031.26860937 5.79258576 2031.26851704 C1.3030023 2031.26847592 -3.18658116 2031.26843577 -7.67616462 2031.26839573 C-9.92328124 2031.26837533 -12.17039786 2031.26835431 -14.41751448 2031.26833267 C-85.47579409 2031.2676524 -156.53406872 2031.27497024 -227.59234693 2031.28887295 C-245.49628839 2031.29237399 -263.40022985 2031.29584346 -281.30417135 2031.29913735 C-282.4065997 2031.29934022 -283.50902806 2031.29954309 -284.64486334 2031.29975212 C-318.62453431 2031.30596742 -352.60420488 2031.30973273 -386.5838764 2031.31099533 C-387.65075497 2031.31103528 -388.71763354 2031.31107523 -389.81684176 2031.3111164 C-413.23777678 2031.31196968 -436.65871177 2031.31223086 -460.07964681 2031.31194602 C-468.46013606 2031.31184954 -476.84062532 2031.31179749 -485.22111458 2031.31176729 C-487.30595038 2031.31175938 -489.39078618 2031.31174917 -491.47562198 2031.31173667 C-524.68849731 2031.31156038 -557.90136837 2031.31725683 -591.11424248 2031.32589048 C-624.56711492 2031.33454232 -658.01998146 2031.33673002 -691.47285455 2031.33012916 C-696.09760622 2031.32921689 -700.7223579 2031.32837361 -705.34710958 2031.32757115 C-706.25366625 2031.32741106 -707.16022292 2031.32725097 -708.094251 2031.32708603 C-722.43622624 2031.324735 -736.77819124 2031.32908603 -751.12016456 2031.33624233 C-765.23011545 2031.34314212 -779.34005126 2031.34287868 -793.45000182 2031.3350502 C-801.71673472 2031.33067621 -809.98342315 2031.33172268 -818.25015235 2031.34091698 C-824.39710764 2031.34713777 -830.54401453 2031.34285612 -836.69096647 2031.33458368 C-839.15508314 2031.33286816 -841.61920506 2031.33447172 -844.08331638 2031.33988489 C-861.94550376 2031.37648363 -879.89130864 2031.10539459 -897.335511 2026.8330624 C-898.24599195 2026.61617764 -899.15647291 2026.39929287 -900.0945442 2026.17583584 C-933.38210463 2018.01287954 -961.51342035 2001.62034493 -986.210511 1978.0830624 C-987.04066725 1977.31735928 -987.8708235 1976.55165615 -988.726136 1975.7627499 C-1000.70903062 1964.35967276 -1010.3094084 1950.56023796 -1018.210511 1936.0830624 C-1018.55420728 1935.45609463 -1018.89790357 1934.82912686 -1019.2520149 1934.18316006 C-1026.76703403 1920.28513547 -1032.28410789 1905.74466934 -1036.023011 1890.3955624 C-1036.3153462 1889.2050729 -1036.3153462 1889.2050729 -1036.61358717 1887.99053311 C-1039.97536178 1873.30925297 -1040.50468749 1858.78487871 -1040.47793653 1843.80275845 C-1040.48168048 1841.79427256 -1040.48628494 1839.78578812 -1040.49166718 1837.77730595 C-1040.5038196 1832.29930232 -1040.50364596 1826.82136012 -1040.50127843 1821.34334611 C-1040.50086831 1815.41964105 -1040.51192759 1809.49595517 -1040.52139356 1803.57225918 C-1040.53795956 1791.98452865 -1040.54352702 1780.39681693 -1040.54461832 1768.80907569 C-1040.54553964 1759.3892844 -1040.54966789 1749.96949966 -1040.55601957 1740.5497105 C-1040.55781479 1737.83214533 -1040.55959443 1735.11458015 -1040.56136933 1732.39701497 C-1040.56181142 1731.72132034 -1040.56225352 1731.0456257 -1040.56270901 1730.34945548 C-1040.57500354 1711.36454979 -1040.58291149 1692.37964637 -1040.58202245 1673.39473652 C-1040.5819913 1672.68007575 -1040.58196014 1671.96541497 -1040.58192804 1671.22909781 C-1040.58176184 1667.60737957 -1040.58156376 1663.98566132 -1040.58135862 1660.36394308 C-1040.58131873 1659.6447286 -1040.58127884 1658.92551412 -1040.58123774 1658.18450527 C-1040.58115687 1656.73008351 -1040.58107327 1655.27566176 -1040.58098696 1653.82124001 C-1040.57976084 1631.1814377 -1040.59479158 1608.54169525 -1040.62213209 1585.90191006 C-1040.65287512 1560.43446423 -1040.67006344 1534.96705773 -1040.66820564 1509.49959218 C-1040.66805639 1506.78265571 -1040.66795897 1504.06571924 -1040.66789701 1501.34878277 C-1040.6678737 1500.67985956 -1040.66785039 1500.01093636 -1040.66782638 1499.32174275 C-1040.66776874 1489.24096057 -1040.67838421 1479.16022566 -1040.69456175 1469.07945751 C-1040.71277703 1457.61339233 -1040.71711757 1446.14742539 -1040.7035429 1434.681352 C-1040.69701643 1428.83451826 -1040.69688501 1422.98787301 -1040.7142494 1417.14105725 C-1040.72999773 1411.78325664 -1040.72709828 1406.42579374 -1040.70968113 1401.06800128 C-1040.70661528 1399.13553646 -1040.71022788 1397.20304633 -1040.72140129 1395.27061138 C-1040.82608366 1375.87295234 -1037.23869035 1359.80572914 -1023.413636 1345.2939999 C-1022.68660475 1344.56439053 -1021.9595735 1343.83478115 -1021.210511 1343.0830624 C-1020.66910475 1342.51845303 -1020.1276985 1341.95384365 -1019.569886 1341.3721249 C-1008.25472322 1330.57128771 -992.43135502 1326.59094683 -977.26617506 1326.73125576 C-960.1837152 1327.22082646 -945.63220323 1334.31015636 -933.80035475 1346.5830624 C-919.63066497 1362.85809841 -917.74990525 1381.05426041 -917.83197096 1401.71871304 C-917.82867489 1403.68152624 -917.82405749 1405.64433759 -917.81824329 1407.60714494 C-917.806092 1412.96814737 -917.81236899 1418.32899059 -917.82174828 1423.68999266 C-917.82856901 1429.48417945 -917.81799971 1435.27833772 -917.80946424 1441.07251858 C-917.79691973 1451.10321257 -917.79491728 1461.13386345 -917.79982069 1471.16456341 C-917.80663859 1485.68018051 -917.79414594 1500.19573479 -917.77631351 1514.71134011 C-917.76801975 1521.48371667 -917.76068208 1528.25609426 -917.75359419 1535.02847218 C-917.75288369 1535.70629532 -917.75217319 1536.38411846 -917.75144117 1537.0824817 C-917.73477348 1553.19562794 -917.72746894 1569.30877626 -917.72174146 1585.42192959 C-917.72148756 1586.12645035 -917.72123365 1586.83097112 -917.72097205 1587.55684099 C-917.71686447 1598.98985725 -917.71332635 1610.42287368 -917.70985975 1621.85589015 C-917.70660447 1632.57223933 -917.70314099 1643.28858842 -917.69928053 1654.0049374 C-917.69903024 1654.70937583 -917.69877995 1655.41381427 -917.69852208 1656.13959932 C-917.69275425 1672.23015083 -917.68429529 1688.32069484 -917.6674278 1704.4112389 C-917.66636541 1705.42625984 -917.66636541 1705.42625984 -917.66528155 1706.46178625 C-917.65814849 1713.21819762 -917.65054613 1719.9746083 -917.64224384 1726.73101833 C-917.62374045 1741.87714831 -917.61570414 1757.02320805 -917.62310448 1772.1693481 C-917.62728483 1782.0878769 -917.62093069 1792.00636268 -917.60630574 1801.92488147 C-917.59825153 1807.64585396 -917.59513059 1813.36671974 -917.60512808 1819.08769154 C-917.61420958 1824.32823022 -917.60946849 1829.56857078 -917.59391364 1834.80909256 C-917.59073256 1836.70120191 -917.59258417 1838.59332811 -917.60007903 1840.4854253 C-917.67190375 1860.01476777 -914.08483535 1876.38968133 -900.210511 1891.0830624 C-882.55933115 1908.03788352 -861.31228604 1908.53197152 -838.26265218 1908.46337914 C-835.71008746 1908.46681458 -833.15752423 1908.47156267 -830.6049641 1908.4775001 C-825.05005433 1908.4882989 -819.4952316 1908.4880284 -813.94031779 1908.48042707 C-805.62438969 1908.46910216 -797.30853476 1908.4751475 -788.9926074 1908.48449106 C-774.81759734 1908.49990817 -760.642618 1908.50110324 -746.46760252 1908.49451184 C-732.1055765 1908.48788159 -717.74357244 1908.48776225 -703.38154676 1908.49555897 C-702.47394091 1908.49604697 -701.56633505 1908.49653497 -700.63122599 1908.49703775 C-696.93459768 1908.49904596 -693.2379694 1908.50109907 -689.54134115 1908.50320949 C-652.0251516 1908.52460506 -614.50897828 1908.5266649 -576.99278415 1908.52115245 C-571.80970719 1908.52039674 -566.62663021 1908.51966912 -561.44355324 1908.51897048 C-559.89931831 1908.51876184 -559.89931831 1908.51876184 -558.32388672 1908.51854899 C-535.50698488 1908.51559647 -512.69008499 1908.51860971 -489.8731835 1908.52286677 C-486.75026986 1908.52344893 -483.62735622 1908.52401777 -480.50444258 1908.5245824 C-472.13294934 1908.52609736 -463.7614561 1908.52762427 -455.38996286 1908.52917541 C-396.95132093 1908.53993188 -338.51268081 1908.5446342 -280.07403829 1908.53670525 C-278.97251329 1908.53655694 -277.87098829 1908.53640864 -276.73608375 1908.53625584 C-264.45292179 1908.53459684 -252.16975985 1908.53284726 -239.88659791 1908.53106283 C-238.77760986 1908.5309018 -237.66862182 1908.53074078 -236.52602807 1908.53057487 C-229.7987743 1908.5295974 -229.7987743 1908.5295974 -223.07152053 1908.52861368 C-152.1293973 1908.5182213 -81.18729888 1908.52599049 -10.24517896 1908.54961514 C7.63159038 1908.55555852 25.50835973 1908.56145007 43.38512919 1908.56702446 C44.48586499 1908.56736823 45.58660078 1908.567712 46.72069221 1908.56806619 C80.64339027 1908.57859305 114.56608626 1908.58418754 148.48878596 1908.58458161 C150.08620332 1908.58460078 150.08620332 1908.58460078 151.71589174 1908.58462034 C175.09328498 1908.58484863 198.47067804 1908.58384257 221.84807119 1908.58171129 C230.21272369 1908.58095652 238.5773762 1908.58027831 246.94202871 1908.57963114 C249.02294249 1908.57946844 251.10385627 1908.57930078 253.18477005 1908.57912812 C286.34575333 1908.57640663 319.50672155 1908.58496247 352.66770159 1908.59898222 C386.99169115 1908.61338729 421.31565207 1908.61294311 455.63964065 1908.5956075 C459.32566795 1908.59380332 463.01169529 1908.59206313 466.69772265 1908.59037327 C467.60233656 1908.58995277 468.50695047 1908.58953227 469.43897692 1908.58909902 C483.76132933 1908.58280186 498.08364238 1908.58990436 512.40598924 1908.60258247 C526.48996457 1908.61476656 540.5738778 1908.61265899 554.65784843 1908.59536216 C562.91377794 1908.58564745 571.169531 1908.58681897 579.42544895 1908.60419214 C585.55734489 1908.61586944 591.68904365 1908.60664777 597.82092258 1908.58934629 C600.2841644 1908.5856128 602.74742785 1908.58856501 605.21065014 1908.59905937 C627.11003111 1908.68592521 646.81452107 1906.64317013 663.4379265 1890.7236874 C673.62511812 1879.28424964 679.91065583 1865.61142783 679.9171395 1850.14079302 C679.91879028 1849.44979916 679.92044106 1848.75880531 679.92214186 1848.04687224 C679.92647018 1845.72168791 679.92366449 1843.39656681 679.92091677 1841.07138085 C679.92256624 1839.38422153 679.92465244 1837.69706259 679.92713687 1836.00990429 C679.93271539 1831.34866788 679.93202894 1826.6874498 679.93035928 1822.02621112 C679.92962968 1816.96448539 679.9346476 1811.90276489 679.9389343 1806.84104138 C679.94652432 1796.79048017 679.94870787 1786.73992427 679.94926336 1776.68936049 C679.95017601 1764.65543566 679.95684061 1752.62151575 679.96361018 1740.58759303 C679.97930102 1712.1900198 679.98535985 1683.79244744 679.99001721 1655.39487092 C679.99239994 1640.9481922 679.99610332 1626.50151394 680.00005431 1612.05483557 C680.01271928 1565.71990778 680.02350309 1519.38498001 680.02689476 1473.05005052 C680.027057 1470.83521056 680.02722256 1468.62037061 680.02738915 1466.40553065 C680.02772295 1461.96359637 680.02805343 1457.5216621 680.02838371 1453.07972782 C680.02877061 1447.87924568 680.02916021 1442.67876354 680.02955477 1437.4782814 C680.02966719 1435.98985826 680.02977861 1434.50143513 680.02988902 1433.013012 C680.03343851 1385.20935094 680.04851685 1337.40570491 680.07182677 1289.60204958 C680.0885683 1255.25484755 680.10404341 1220.90764836 680.10856173 1186.5604422 C680.10865521 1185.85407777 680.1087487 1185.14771334 680.10884502 1184.41994393 C680.11086407 1168.91342137 680.11202011 1153.40689886 680.1123736 1137.90037619 C680.11250978 1132.35178005 680.11271877 1126.80318392 680.11296686 1121.25458779 C680.11302842 1119.87422495 680.11308674 1118.49386212 680.11314181 1117.11349929 C680.11406162 1095.11804143 680.12402984 1073.12259926 680.13859929 1051.12714656 C680.15362262 1028.35534688 680.157804 1005.583564 680.14950633 982.81175922 C680.14504368 969.68126166 680.1489361 956.55082842 680.16474484 943.42033929 C680.17447544 934.65278016 680.17333496 925.88526622 680.16330861 917.11770753 C680.15790274 912.11997164 680.15725099 907.12235948 680.16981733 902.12463371 C680.18115975 897.57576587 680.17862799 893.02712237 680.16515026 888.47826227 C680.16271973 886.84508201 680.165288 885.21188444 680.17354674 883.57872325 C680.23169666 871.26776917 679.06437752 860.05627196 672.914489 849.1455624 C672.42528979 848.21647061 672.42528979 848.21647061 671.92620775 847.26860928 C669.71248111 843.21585292 667.07779773 840.28543972 663.789489 837.0830624 C663.789489 836.4230624 663.789489 835.7630624 663.789489 835.0830624 C663.129489 835.0830624 662.469489 835.0830624 661.789489 835.0830624 C661.789489 834.4230624 661.789489 833.7630624 661.789489 833.0830624 C661.129489 833.0830624 660.469489 833.0830624 659.789489 833.0830624 C659.789489 832.4230624 659.789489 831.7630624 659.789489 831.0830624 C659.129489 831.0830624 658.469489 831.0830624 657.789489 831.0830624 C657.789489 830.4230624 657.789489 829.7630624 657.789489 829.0830624 C657.129489 829.0830624 656.469489 829.0830624 655.789489 829.0830624 C655.789489 828.4230624 655.789489 827.7630624 655.789489 827.0830624 C655.129489 827.0830624 654.469489 827.0830624 653.789489 827.0830624 C653.789489 826.4230624 653.789489 825.7630624 653.789489 825.0830624 C653.129489 825.0830624 652.469489 825.0830624 651.789489 825.0830624 C651.789489 824.4230624 651.789489 823.7630624 651.789489 823.0830624 C651.129489 823.0830624 650.469489 823.0830624 649.789489 823.0830624 C649.789489 822.4230624 649.789489 821.7630624 649.789489 821.0830624 C649.129489 821.0830624 648.469489 821.0830624 647.789489 821.0830624 C647.789489 820.4230624 647.789489 819.7630624 647.789489 819.0830624 C647.129489 819.0830624 646.469489 819.0830624 645.789489 819.0830624 C645.789489 818.4230624 645.789489 817.7630624 645.789489 817.0830624 C645.129489 817.0830624 644.469489 817.0830624 643.789489 817.0830624 C643.789489 816.4230624 643.789489 815.7630624 643.789489 815.0830624 C643.129489 815.0830624 642.469489 815.0830624 641.789489 815.0830624 C641.789489 814.4230624 641.789489 813.7630624 641.789489 813.0830624 C641.129489 813.0830624 640.469489 813.0830624 639.789489 813.0830624 C639.789489 812.4230624 639.789489 811.7630624 639.789489 811.0830624 C639.129489 811.0830624 638.469489 811.0830624 637.789489 811.0830624 C637.789489 810.4230624 637.789489 809.7630624 637.789489 809.0830624 C637.129489 809.0830624 636.469489 809.0830624 635.789489 809.0830624 C635.789489 808.4230624 635.789489 807.7630624 635.789489 807.0830624 C635.129489 807.0830624 634.469489 807.0830624 633.789489 807.0830624 C633.789489 806.4230624 633.789489 805.7630624 633.789489 805.0830624 C633.129489 805.0830624 632.469489 805.0830624 631.789489 805.0830624 C631.789489 804.4230624 631.789489 803.7630624 631.789489 803.0830624 C631.129489 803.0830624 630.469489 803.0830624 629.789489 803.0830624 C629.789489 802.4230624 629.789489 801.7630624 629.789489 801.0830624 C629.129489 801.0830624 628.469489 801.0830624 627.789489 801.0830624 C627.789489 800.4230624 627.789489 799.7630624 627.789489 799.0830624 C627.129489 799.0830624 626.469489 799.0830624 625.789489 799.0830624 C625.789489 798.4230624 625.789489 797.7630624 625.789489 797.0830624 C625.129489 797.0830624 624.469489 797.0830624 623.789489 797.0830624 C623.789489 796.4230624 623.789489 795.7630624 623.789489 795.0830624 C623.129489 795.0830624 622.469489 795.0830624 621.789489 795.0830624 C621.789489 794.4230624 621.789489 793.7630624 621.789489 793.0830624 C621.129489 793.0830624 620.469489 793.0830624 619.789489 793.0830624 C619.789489 792.4230624 619.789489 791.7630624 619.789489 791.0830624 C619.129489 791.0830624 618.469489 791.0830624 617.789489 791.0830624 C617.789489 790.4230624 617.789489 789.7630624 617.789489 789.0830624 C617.129489 789.0830624 616.469489 789.0830624 615.789489 789.0830624 C615.789489 788.4230624 615.789489 787.7630624 615.789489 787.0830624 C615.129489 787.0830624 614.469489 787.0830624 613.789489 787.0830624 C613.789489 786.4230624 613.789489 785.7630624 613.789489 785.0830624 C613.129489 785.0830624 612.469489 785.0830624 611.789489 785.0830624 C611.789489 784.4230624 611.789489 783.7630624 611.789489 783.0830624 C611.129489 783.0830624 610.469489 783.0830624 609.789489 783.0830624 C608.46693109 781.7418839 608.46693109 781.7418839 606.88271937 779.80985617 C601.98853591 774.06213368 596.63473065 768.78491428 591.29780314 763.45436215 C590.12856165 762.28286118 588.95953685 761.11114391 587.79070804 759.93923121 C584.57962411 756.7209427 581.3654561 753.50574998 578.15076488 750.29106528 C574.65333366 746.79256144 571.15876604 743.29119914 567.66381964 739.79021334 C560.73231773 732.84765494 553.79812032 725.90779457 546.86308307 718.96876789 C538.55624772 710.65691686 530.25227114 702.34221196 521.94829827 694.02750135 C501.88044691 673.93404194 481.80732655 653.84584906 461.73308325 633.75877586 C455.08509033 627.1065308 448.43725524 620.45412805 441.78951809 613.80162739 C406.94879648 578.93599891 372.10664982 544.07179505 337.25958618 509.2125051 C334.71002055 506.66204211 332.16046359 504.11157045 329.61090712 501.5610983 C329.10516528 501.05517485 328.59942345 500.54925141 328.0783561 500.02799694 C322.95463147 494.90242968 317.83091845 489.77685079 312.7072173 484.65126005 C311.67991402 483.62357872 310.65260986 482.59589827 309.62530483 481.5682187 C276.62743209 448.55831426 243.63840374 415.53959178 210.65536601 382.51486476 C186.9497344 358.77927909 163.24294137 335.04486026 139.52717707 311.31939816 C139.03936018 310.83138071 138.55154328 310.34336326 138.04894406 309.8405574 C127.33967009 299.12693266 116.62969356 288.4140105 105.91905907 277.7017459 C101.6095159 273.3915264 97.30006234 269.08121732 92.99063418 264.77088284 C92.51900416 264.29915873 92.04737415 263.82743462 91.56145232 263.34141584 C75.90771537 247.68447216 60.26243063 232.01911195 44.62071127 216.35016329 C29.38119985 201.08452271 14.13251781 185.82809134 -1.12555287 170.58100044 C-10.1912818 161.52125269 -19.249985 152.45461002 -28.29877718 143.37794529 C-34.34425652 137.31522318 -40.39877872 131.2616332 -46.46071951 125.21537065 C-49.91404696 121.77045923 -53.36332258 118.32174574 -56.80163566 114.86184304 C-59.93377753 111.7101927 -63.0773487 108.57042006 -66.23017068 105.43946151 C-67.35762975 104.31584522 -68.48097734 103.188083 -69.59948727 102.05555791 C-83.20466146 88.29110934 -98.3746512 79.08844242 -118.273011 78.8330624 C-133.53825684 78.87630673 -147.6591385 83.55600525 -158.88435086 94.08117359 C-159.39640951 94.5598388 -159.90846815 95.03850401 -160.43604372 95.53167422 C-166.19207159 100.94445196 -171.78643294 106.52043593 -177.36657312 112.11328339 C-178.54655819 113.29222262 -179.72676187 114.47094307 -180.90716141 115.64946731 C-184.13031446 118.86875219 -187.35038068 122.09110877 -190.56992163 125.31400548 C-194.08051459 128.82714683 -197.59401873 132.33737478 -201.10714349 135.84798401 C-207.25717315 141.9944093 -213.40534955 148.14268346 -219.55230024 154.29218792 C-228.69261022 163.43628496 -237.83578221 172.57751631 -246.97951307 181.71819244 C-263.30856796 198.04198501 -279.634765 214.36863349 -295.95974392 230.69650221 C-310.23976073 244.97904349 -324.52071468 259.26064692 -338.80259207 273.54132771 C-339.75945202 274.49811018 -340.71631182 275.45489282 -341.67317145 276.41167562 C-345.51841164 280.25660534 -349.36365593 284.10153097 -353.2089062 287.94645061 C-363.95657714 298.69320467 -374.70407499 309.44013183 -385.45143678 320.18719506 C-386.18545935 320.92119715 -386.18545935 320.92119715 -386.93431065 321.67002757 C-402.52084432 337.25615212 -418.10661031 352.8430441 -433.69185236 368.43046021 C-434.19717555 368.93585365 -434.70249875 369.44124709 -435.22313476 369.96195549 C-443.42905464 378.16902029 -451.63493724 386.37612236 -459.84081668 394.58322758 C-492.41071738 427.15798832 -524.9831634 459.73020169 -557.5579231 492.30010342 C-565.77281349 500.51377265 -573.98769882 508.72744694 -582.20254877 516.94115662 C-582.70834781 517.44688522 -583.21414686 517.95261381 -583.73527315 518.47366752 C-599.31559026 534.05182944 -614.89528743 549.63061114 -630.47430971 565.21006798 C-630.96314936 565.69892121 -631.45198901 566.18777445 -631.95564198 566.69144142 C-642.6846545 577.42076637 -653.41350646 588.15025187 -664.1422135 598.87988228 C-667.98052058 602.71851851 -671.8188357 606.5571467 -675.65715311 610.3957726 C-676.612033 611.35072988 -677.56691222 612.30568783 -678.52179077 613.26064645 C-692.80601004 627.54606032 -707.09133587 641.83036682 -721.37741437 656.11392136 C-721.84606007 656.58248426 -722.31470577 657.05104716 -722.79755285 657.53380894 C-723.26533483 658.00150823 -723.7331168 658.46920753 -724.21507399 658.95107953 C-739.96911708 674.70236845 -755.7212799 690.45553557 -771.47130518 706.21084201 C-780.55889865 715.30138181 -789.64787923 724.39052958 -798.73882565 733.47771631 C-804.79996479 739.53662428 -810.85930443 745.59732779 -816.91714166 751.65953709 C-820.37572251 755.12051178 -823.83511174 758.58066831 -827.29667293 762.03866237 C-830.43922407 765.17800789 -833.57950732 768.31960275 -836.71791762 771.46308773 C-837.85271351 772.59889929 -838.98836631 773.73385545 -840.12493193 774.8678961 C-841.65701921 776.39681828 -843.18604629 777.92873464 -844.71429249 779.46149474 C-845.56497761 780.31224761 -846.41566273 781.16300049 -847.29212619 782.03953376 C-849.25666777 783.93694323 -849.25666777 783.93694323 -850.210511 786.0830624 C-850.870511 786.0830624 -851.530511 786.0830624 -852.210511 786.0830624 C-852.210511 786.7430624 -852.210511 787.4030624 -852.210511 788.0830624 C-852.870511 788.0830624 -853.530511 788.0830624 -854.210511 788.0830624 C-854.210511 788.7430624 -854.210511 789.4030624 -854.210511 790.0830624 C-854.870511 790.0830624 -855.530511 790.0830624 -856.210511 790.0830624 C-856.210511 790.7430624 -856.210511 791.4030624 -856.210511 792.0830624 C-856.870511 792.0830624 -857.530511 792.0830624 -858.210511 792.0830624 C-858.210511 792.7430624 -858.210511 793.4030624 -858.210511 794.0830624 C-858.870511 794.0830624 -859.530511 794.0830624 -860.210511 794.0830624 C-860.210511 794.7430624 -860.210511 795.4030624 -860.210511 796.0830624 C-860.870511 796.0830624 -861.530511 796.0830624 -862.210511 796.0830624 C-862.210511 796.7430624 -862.210511 797.4030624 -862.210511 798.0830624 C-862.870511 798.0830624 -863.530511 798.0830624 -864.210511 798.0830624 C-864.210511 798.7430624 -864.210511 799.4030624 -864.210511 800.0830624 C-864.870511 800.0830624 -865.530511 800.0830624 -866.210511 800.0830624 C-866.210511 800.7430624 -866.210511 801.4030624 -866.210511 802.0830624 C-866.870511 802.0830624 -867.530511 802.0830624 -868.210511 802.0830624 C-868.210511 802.7430624 -868.210511 803.4030624 -868.210511 804.0830624 C-868.870511 804.0830624 -869.530511 804.0830624 -870.210511 804.0830624 C-870.210511 804.7430624 -870.210511 805.4030624 -870.210511 806.0830624 C-870.870511 806.0830624 -871.530511 806.0830624 -872.210511 806.0830624 C-872.210511 806.7430624 -872.210511 807.4030624 -872.210511 808.0830624 C-872.870511 808.0830624 -873.530511 808.0830624 -874.210511 808.0830624 C-874.210511 808.7430624 -874.210511 809.4030624 -874.210511 810.0830624 C-874.870511 810.0830624 -875.530511 810.0830624 -876.210511 810.0830624 C-876.210511 810.7430624 -876.210511 811.4030624 -876.210511 812.0830624 C-876.870511 812.0830624 -877.530511 812.0830624 -878.210511 812.0830624 C-878.210511 812.7430624 -878.210511 813.4030624 -878.210511 814.0830624 C-878.870511 814.0830624 -879.530511 814.0830624 -880.210511 814.0830624 C-880.210511 814.7430624 -880.210511 815.4030624 -880.210511 816.0830624 C-880.870511 816.0830624 -881.530511 816.0830624 -882.210511 816.0830624 C-882.210511 816.7430624 -882.210511 817.4030624 -882.210511 818.0830624 C-882.870511 818.0830624 -883.530511 818.0830624 -884.210511 818.0830624 C-884.210511 818.7430624 -884.210511 819.4030624 -884.210511 820.0830624 C-884.870511 820.0830624 -885.530511 820.0830624 -886.210511 820.0830624 C-886.210511 820.7430624 -886.210511 821.4030624 -886.210511 822.0830624 C-886.870511 822.0830624 -887.530511 822.0830624 -888.210511 822.0830624 C-888.210511 822.7430624 -888.210511 823.4030624 -888.210511 824.0830624 C-888.870511 824.0830624 -889.530511 824.0830624 -890.210511 824.0830624 C-890.210511 824.7430624 -890.210511 825.4030624 -890.210511 826.0830624 C-890.870511 826.0830624 -891.530511 826.0830624 -892.210511 826.0830624 C-892.210511 826.7430624 -892.210511 827.4030624 -892.210511 828.0830624 C-892.870511 828.0830624 -893.530511 828.0830624 -894.210511 828.0830624 C-894.210511 828.7430624 -894.210511 829.4030624 -894.210511 830.0830624 C-894.870511 830.0830624 -895.530511 830.0830624 -896.210511 830.0830624 C-896.210511 830.7430624 -896.210511 831.4030624 -896.210511 832.0830624 C-896.870511 832.0830624 -897.530511 832.0830624 -898.210511 832.0830624 C-898.210511 832.7430624 -898.210511 833.4030624 -898.210511 834.0830624 C-898.870511 834.0830624 -899.530511 834.0830624 -900.210511 834.0830624 C-900.210511 834.7430624 -900.210511 835.4030624 -900.210511 836.0830624 C-900.870511 836.0830624 -901.530511 836.0830624 -902.210511 836.0830624 C-902.61849928 836.96284756 -902.61849928 836.96284756 -903.03472975 837.86040615 C-904.18770235 840.03994573 -905.46493389 841.7421595 -907.023011 843.6455624 C-914.19411049 853.06091798 -917.53049725 863.83893369 -917.47120741 875.56385159 C-917.47503295 876.37963623 -917.4788585 877.19542088 -917.48279997 878.03592627 C-917.49305791 880.7493778 -917.4891516 883.46261486 -917.4851692 886.17607998 C-917.4895197 888.12983257 -917.49470398 890.08358345 -917.50065687 892.03733181 C-917.51402268 897.33083557 -917.51462815 902.62426782 -917.51209357 907.91778516 C-917.51102207 912.34352516 -917.51591188 916.76925079 -917.52069899 921.19498771 C-917.53178614 931.64051902 -917.53223624 942.08601438 -917.52618482 952.53154873 C-917.52014698 963.29130908 -917.53245311 974.0509386 -917.55375489 984.81067663 C-917.57139532 994.06274641 -917.57736834 1003.31477464 -917.57411715 1012.56686061 C-917.57230781 1018.08639971 -917.57490544 1023.6058455 -917.58883169 1029.1253693 C-917.60144487 1034.31862703 -917.59943291 1039.51168151 -917.5864208 1044.70493626 C-917.58406295 1046.60475348 -917.58676115 1048.50458517 -917.59504392 1050.4043858 C-917.66918744 1068.74088712 -914.59005219 1083.45293005 -902.04254225 1097.63384365 C-893.34000658 1105.16003657 -882.66508291 1110.16153869 -872.523011 1115.4580624 C-871.02256682 1116.24634534 -869.52240946 1117.03517443 -868.02252271 1117.82451748 C-864.93684673 1119.44808823 -861.8501595 1121.06971087 -858.76275709 1122.689996 C-851.77466227 1126.36024268 -844.80505849 1130.06525634 -837.835511 1133.7705624 C-836.49982581 1134.48013182 -835.16413246 1135.18968588 -833.82843092 1135.89922451 C-824.18201192 1141.0253906 -814.55309606 1146.18369969 -804.92779615 1151.34941982 C-794.97963457 1156.6829543 -785.00384462 1161.96357349 -775.02453687 1167.23854946 C-764.27258017 1172.92268096 -753.54275661 1178.64600212 -742.8276985 1184.39946865 C-733.63994044 1189.32820902 -724.42825999 1194.21070602 -715.210511 1199.0830624 C-703.72951712 1205.15173424 -692.26893851 1211.25607765 -680.8276985 1217.39946865 C-671.63994044 1222.32820902 -662.42825999 1227.21070602 -653.210511 1232.0830624 C-641.72951712 1238.15173424 -630.26893851 1244.25607765 -618.8276985 1250.39946865 C-609.63994044 1255.32820902 -600.42825999 1260.21070602 -591.210511 1265.0830624 C-580.86113029 1270.55358142 -570.5241034 1276.04527346 -560.210511 1281.5830624 C-549.97866645 1287.07608692 -539.72620739 1292.52863999 -529.460511 1297.9580624 C-528.74739759 1298.3352441 -528.03428419 1298.71242581 -527.29956129 1299.10103726 C-524.41555758 1300.62641865 -521.53154011 1302.15177401 -518.6474922 1303.6770718 C-511.03976482 1307.70120305 -503.43641398 1311.73355726 -495.835511 1315.7705624 C-495.17230848 1316.12278866 -494.50910597 1316.47501492 -493.82580641 1316.8379147 C-483.51281847 1322.31644385 -473.21744128 1327.82715792 -462.92779615 1333.34941982 C-452.97963457 1338.6829543 -443.00384462 1343.96357349 -433.02453687 1349.23854946 C-422.27258017 1354.92268096 -411.54275661 1360.64600212 -400.8276985 1366.39946865 C-391.63994044 1371.32820902 -382.42825999 1376.21070602 -373.210511 1381.0830624 C-361.72951712 1387.15173424 -350.26893851 1393.25607765 -338.8276985 1399.39946865 C-329.63994044 1404.32820902 -320.42825999 1409.21070602 -311.210511 1414.0830624 C-299.72951712 1420.15173424 -288.26893851 1426.25607765 -276.8276985 1432.39946865 C-267.63994044 1437.32820902 -258.42825999 1442.21070602 -249.210511 1447.0830624 C-237.73096545 1453.15096868 -226.2716618 1459.25422792 -214.83209303 1465.39727139 C-208.50658199 1468.79079943 -202.1729993 1472.16811797 -195.8276985 1475.52446865 C-195.11080854 1475.90367459 -194.39391859 1476.28288052 -193.6553047 1476.67357754 C-190.02165723 1478.59489345 -186.38690533 1480.51409475 -182.75103834 1482.43120693 C-176.03961843 1485.97337969 -169.34444762 1489.53916861 -162.694886 1493.19634365 C-161.51930215 1493.84020575 -160.3436845 1494.48400611 -159.16803053 1495.12774014 C-157.03411437 1496.29975255 -154.90444261 1497.47954701 -152.78033521 1498.66924404 C-136.73790269 1507.46683748 -119.4925269 1510.97157143 -101.53472975 1506.22759365 C-95.63972114 1504.19793734 -90.23806408 1501.35778066 -84.75347975 1498.43023037 C-81.83516782 1496.88421989 -78.89923455 1495.37506415 -75.960511 1493.86821865 C-64.36268946 1487.91212864 -52.84069381 1481.83984084 -41.41900709 1475.55278897 C-34.56831541 1471.792944 -27.65342207 1468.16938228 -20.710511 1464.5830624 C-11.86696021 1460.01461878 -3.10078991 1455.3276638 5.62152025 1450.53228115 C13.0894323 1446.43732217 20.63150949 1442.49664301 28.1932976 1438.57842373 C34.68869361 1435.20355848 41.12645955 1431.73662883 47.539489 1428.2080624 C56.86411366 1423.08019356 66.29291648 1418.17266703 75.75237963 1413.29888272 C83.80677193 1409.13859405 91.78090201 1404.85143341 99.72308275 1400.4814999 C106.2002793 1396.92613362 112.72917412 1393.4823579 119.289489 1390.0830624 C126.7983332 1386.19209288 134.25358422 1382.21995595 141.664489 1378.1455624 C150.53129325 1373.27200956 159.48349817 1368.58224543 168.47259447 1363.93877529 C175.29383335 1360.40591521 182.05886968 1356.78539146 188.789489 1353.0830624 C197.61415319 1348.2288567 206.52505663 1343.56076305 215.47308275 1338.93853115 C222.29415205 1335.40574001 229.0590293 1331.78530366 235.789489 1328.0830624 C244.61415319 1323.2288567 253.52505663 1318.56076305 262.47308275 1313.93853115 C269.29415205 1310.40574001 276.0590293 1306.78530366 282.789489 1303.0830624 C290.56717445 1298.80477099 298.40291687 1294.6570852 306.289489 1290.5830624 C315.22949388 1285.96394482 324.10413698 1281.24297747 332.92034838 1276.39165615 C338.13579323 1273.52213076 343.37264864 1270.69639733 348.62689135 1267.89873623 C349.3179648 1267.53047978 350.00903826 1267.16222332 350.72105334 1266.78280758 C352.4103984 1265.88264195 354.09992509 1264.98281719 355.789489 1264.0830624 C355.83529795 1217.45736913 355.87052421 1170.83167824 355.89161966 1124.20596688 C355.89412098 1118.69746939 355.89670964 1113.18897194 355.89935229 1107.68047451 C355.89987691 1106.58386293 355.90040153 1105.48725135 355.90094205 1104.35740912 C355.90963724 1086.61692058 355.92540234 1068.87644504 355.9437946 1051.1359642 C355.96251828 1032.92348272 355.97361095 1014.71100804 355.97766599 996.49851733 C355.98040593 985.26655791 355.98905012 974.03463526 356.00532194 962.80268717 C356.0159193 955.09348735 356.01908341 947.38430646 356.01649176 939.67509989 C356.01521475 935.23180678 356.01712916 930.78857776 356.02789995 926.34529614 C356.03771081 922.26799571 356.0380737 918.19080182 356.03128679 914.11349624 C356.03044933 912.64755723 356.0329196 911.18161127 356.03925537 909.71568571 C356.12384281 888.9150424 353.30009609 869.22366812 338.539489 853.3330624 C323.16272226 838.95613027 304.14708658 835.59515208 283.82491228 835.70553898 C282.38707059 835.70239962 280.94923128 835.69794854 279.51139716 835.69232588 C275.59359311 835.68074746 271.67601373 835.68757817 267.75821374 835.69765974 C263.48326717 835.70531818 259.20835319 835.69547108 254.93341133 835.68792974 C247.45194167 835.67712575 239.97053703 835.6774042 232.48906443 835.68507122 C221.36366127 835.69644145 210.23831272 835.69060564 199.1129099 835.6814463 C179.24036385 835.6656641 159.36784676 835.66701227 139.49529796 835.67568304 C122.10436012 835.68323366 104.7134329 835.68519796 87.32249377 835.68161511 C86.16831603 835.68138595 85.0141383 835.6811568 83.82498549 835.6809207 C79.13964537 835.67998666 74.45430525 835.67903146 69.76896513 835.67804141 C25.82881175 835.66886714 -18.1113232 835.67718045 -62.05147374 835.6933321 C-101.07829161 835.7075686 -140.1050801 835.70629471 -179.13189771 835.69194912 C-222.99237068 835.67588061 -266.85282737 835.66951781 -310.71330288 835.67878591 C-315.3900405 835.67974805 -320.06677813 835.68068657 -324.74351576 835.68161511 C-325.89502363 835.68185234 -327.04653151 835.68208957 -328.23293357 835.68233399 C-345.61171975 835.6857445 -362.99049415 835.68175914 -380.3692787 835.67417645 C-400.13235693 835.66559637 -419.89540171 835.66774811 -439.65847578 835.68401868 C-450.71526376 835.69282157 -461.77197926 835.69341117 -472.82876535 835.68208016 C-480.21877017 835.67534292 -487.60871699 835.67955792 -494.99871323 835.69259446 C-499.20617888 835.69971524 -503.41350074 835.70220346 -507.62096175 835.69137651 C-511.45731551 835.68160553 -515.29339944 835.68591649 -519.12973395 835.7009185 C-521.14122043 835.70531035 -523.15272317 835.6951816 -525.16418478 835.68425565 C-545.1303722 835.80629503 -562.6629993 840.65382316 -577.210511 855.0830624 C-589.19135586 869.31457832 -592.67717624 884.60330041 -592.59527662 902.81890225 C-592.59939147 904.36444361 -592.6048577 905.90998187 -592.61155775 907.45551419 C-592.6232046 910.76041309 -592.62579527 914.06514535 -592.6212013 917.37006115 C-592.61433777 922.60892215 -592.63035162 927.84756767 -592.64959791 933.08638882 C-592.68731073 944.21026854 -592.70022852 955.33412858 -592.710511 966.4580624 C-592.72161438 978.4646407 -592.73714575 990.471118 -592.78122356 1002.47762763 C-592.79944984 1007.67218912 -592.80351925 1012.86650006 -592.79628828 1018.06108569 C-592.79475344 1021.30785779 -592.80563109 1024.55450741 -592.81966665 1027.80124592 C-592.8236282 1029.29182397 -592.82261575 1030.78242611 -592.81589391 1032.27299427 C-592.76433201 1044.67165562 -593.85975028 1057.05725376 -599.710511 1068.2080624 C-600.22327589 1069.20180874 -600.22327589 1069.20180874 -600.74639967 1070.21563076 C-608.9858301 1085.39160542 -622.66924697 1095.17676705 -639.023011 1100.2705624 C-655.13203232 1103.79044698 -671.50260567 1101.77329402 -685.8901985 1093.5518124 C-699.50893981 1084.55750349 -710.50321385 1071.26035904 -714.210511 1055.0830624 C-715.05569725 1050.71073032 -715.3399748 1046.57600822 -715.35095289 1042.12491726 C-715.35540957 1041.11039757 -715.35540957 1041.11039757 -715.35995629 1040.07538252 C-715.3685895 1037.82133793 -715.37014703 1035.56734679 -715.37164381 1033.31328701 C-715.37627626 1031.69132237 -715.38130149 1030.06935882 -715.38668897 1028.44739651 C-715.39978477 1024.04565612 -715.4062539 1019.64393097 -715.41069963 1015.24217414 C-715.41363846 1012.48309097 -715.41774505 1009.72401187 -715.42220381 1006.96493077 C-715.43587913 998.30713632 -715.44554231 989.6493513 -715.4494057 980.9915468 C-715.45386906 971.04681779 -715.47133625 961.10222741 -715.50040629 951.15754049 C-715.52216287 943.44250265 -715.53211757 935.72750338 -715.53344681 928.01243525 C-715.53448607 923.41920819 -715.54020193 918.82611141 -715.55826643 914.23291706 C-715.64123844 891.87075011 -715.44307823 870.22916659 -709.523011 848.4580624 C-709.26882398 847.50915127 -709.01463697 846.56024014 -708.75274732 845.58257412 C-696.20626835 800.64657671 -665.11562971 761.84160129 -625.210511 738.0830624 C-619.99509593 735.16942984 -614.62909386 732.59292664 -609.210511 730.0830624 C-607.51861646 729.28255459 -607.51861646 729.28255459 -605.79254225 728.4658749 C-572.70641883 713.49372527 -537.71061877 712.76409146 -502.03492254 712.82612729 C-497.76941151 712.83127727 -493.50391418 712.82465111 -489.23840519 712.81964063 C-481.78879915 712.81246957 -474.33922217 712.81260384 -466.88961485 712.81773495 C-455.81137126 712.82534441 -444.73315189 712.82140953 -433.65490843 712.81531833 C-413.86246051 712.80481973 -394.07002555 712.80568641 -374.27757641 712.81147616 C-356.95821455 712.81651731 -339.63885743 712.817816 -322.31949499 712.81543087 C-321.16840687 712.8152781 -320.01731876 712.81512533 -318.83134919 712.81496793 C-314.15814785 712.81434521 -309.48494652 712.8137084 -304.81174519 712.8130484 C-261.02209266 712.80693778 -217.23244837 712.81246584 -173.44279711 712.8232422 C-134.57540632 712.83273449 -95.70802863 712.8318817 -56.84063795 712.82232022 C-13.12395734 712.81160161 30.592716 712.80736933 74.30939773 712.81354474 C78.97290525 712.81418613 83.63641277 712.81481182 88.29992029 712.81543087 C89.44810806 712.81558903 90.59629582 712.81574718 91.77927715 712.81591013 C109.08585171 712.81818103 126.39242101 712.81553212 143.69899485 712.81047177 C163.38330427 712.8047447 183.06759876 712.80620122 202.75190633 712.81703325 C213.75615886 712.82288969 224.76037903 712.82331255 235.76463069 712.8157409 C243.12819388 712.81123479 250.49173128 712.81408557 257.85529066 712.82275044 C262.04171586 712.82747743 266.22807708 712.82919924 270.41450011 712.82193848 C315.39503387 712.74968616 315.39503387 712.74968616 334.789489 717.3955624 C335.7404143 717.6143002 336.69133959 717.83303799 337.6710808 718.0584042 C383.88246021 728.98351543 425.28320561 758.47356424 450.48602221 798.79912686 C452.33132088 801.85228675 454.08057613 804.95182452 455.789489 808.0830624 C456.13318529 808.71003018 456.47688158 809.33699795 456.83099291 809.98296475 C464.35730084 823.90186646 469.87556488 838.45646733 473.601989 853.8330624 C473.79687914 854.63510098 473.99176928 855.43713955 474.19256518 856.26348232 C477.27783683 869.79163027 478.08786893 883.04073605 478.08142016 896.85138821 C478.08786977 898.59915014 478.09517387 900.34690909 478.10324905 902.09466427 C478.12278056 906.85661606 478.13020354 911.61851869 478.13548133 916.38050472 C478.14333424 921.53190833 478.16254514 926.68327188 478.18025133 931.83464932 C478.21304673 941.90984722 478.23526528 951.9850415 478.25361646 962.06027502 C478.26872379 970.25155083 478.28766072 978.44280954 478.30930254 986.63407063 C478.31238437 987.80197396 478.3154662 988.9698773 478.31864141 990.17317164 C478.3249185 992.54607942 478.33120393 994.91898717 478.3374976 997.2918949 C478.39598885 1019.51701385 478.44240757 1041.74214548 478.48470223 1063.96730034 C478.521247 1083.02016028 478.56829781 1102.07297081 478.6229851 1121.12578701 C478.68655723 1143.27548953 478.74349005 1165.425193 478.78997371 1187.57493847 C478.794953 1189.93858231 478.79994124 1192.30222614 478.80493853 1194.66586994 C478.80739409 1195.8286938 478.80984965 1196.99151766 478.81237962 1198.1895786 C478.83010782 1206.36754682 478.85256719 1214.54549415 478.87688372 1222.72344517 C478.90640836 1232.6944775 478.92865821 1242.66549473 478.94168795 1252.63656276 C478.94851267 1257.71982566 478.95853551 1262.80302671 478.97744105 1267.88626026 C478.99467995 1272.54639281 479.0024068 1277.20644413 479.00279355 1281.86660765 C479.00455304 1283.54540871 479.00967808 1285.22421065 479.01865811 1286.90298861 C479.13325657 1309.28217979 475.70221599 1327.50256562 460.3285515 1344.6611874 C453.7780986 1350.90931171 446.38971635 1355.13820384 438.414489 1359.3330624 C436.73782152 1360.22553677 436.73782152 1360.22553677 435.02728197 1361.13604092 C431.94346505 1362.77709773 428.85509294 1364.40939544 425.76556322 1366.03966641 C422.34451058 1367.84603207 418.92662458 1369.658375 415.508239 1371.46978115 C411.19130944 1373.75671327 406.8737925 1376.04251904 402.55438158 1378.32476162 C393.38593403 1383.17004305 384.2368001 1388.04969176 375.101989 1392.9580624 C365.79863184 1397.95684193 356.45833738 1402.87647359 347.08319018 1407.73906826 C339.7318009 1411.56348672 332.46002549 1415.5222741 325.19818041 1419.51348232 C317.23139517 1423.87671811 309.17626372 1428.05871605 301.10638354 1432.22734951 C294.28514466 1435.7602096 287.52010833 1439.38073334 280.789489 1443.0830624 C271.96482482 1447.9372681 263.05392138 1452.60536175 254.10589525 1457.22759365 C247.28482596 1460.76038479 240.51994871 1464.38082114 233.789489 1468.0830624 C224.96482482 1472.9372681 216.05392138 1477.60536175 207.10589525 1482.22759365 C200.28482596 1485.76038479 193.51994871 1489.38082114 186.789489 1493.0830624 C177.96482482 1497.9372681 169.05392138 1502.60536175 160.10589525 1507.22759365 C153.28482596 1510.76038479 146.51994871 1514.38082114 139.789489 1518.0830624 C130.9633906 1522.93805703 122.05106577 1527.60696841 113.10150072 1532.22979092 C106.32304538 1535.74038004 99.60158732 1539.33923156 92.914489 1543.0205624 C83.63067638 1548.1300476 74.24160614 1553.01649008 64.82171557 1557.8696835 C56.81527409 1562.00509143 48.89035976 1566.26865551 40.99652025 1570.6143124 C33.09447099 1574.95066258 25.10041647 1579.09824922 17.09222338 1583.23442959 C10.39909401 1586.70058808 3.76576214 1590.2579756 -2.835511 1593.8955624 C-55.53537703 1622.75593955 -107.92344252 1641.48492501 -168.3433235 1624.5518124 C-194.9368882 1616.66595663 -219.22953057 1602.69760462 -243.4094856 1589.34966397 C-250.12004451 1585.64896456 -256.9017742 1582.09945755 -263.710511 1578.5830624 C-272.55409722 1574.01469051 -281.32023418 1569.32766265 -290.04254225 1564.53228115 C-296.55436686 1560.96158367 -303.11676932 1557.49985983 -309.710511 1554.0830624 C-317.21934611 1550.19207459 -324.67460569 1546.21995623 -332.085511 1542.1455624 C-340.95231524 1537.27200956 -349.90452016 1532.58224543 -358.89361646 1527.93877529 C-366.62458121 1523.93474945 -374.27385569 1519.79858107 -381.90191725 1515.60259365 C-388.7869946 1511.82818434 -395.734646 1508.18654604 -402.710511 1504.5830624 C-411.5077722 1500.0387103 -420.22642556 1495.37474365 -428.90191725 1490.60259365 C-435.7869946 1486.82818434 -442.734646 1483.18654604 -449.710511 1479.5830624 C-458.5077722 1475.0387103 -467.22642556 1470.37474365 -475.90191725 1465.60259365 C-482.78699501 1461.82818412 -489.73465294 1458.18656018 -496.710511 1454.5830624 C-505.55405292 1450.01460084 -514.32023156 1445.32766408 -523.04254225 1440.53228115 C-529.55436686 1436.96158367 -536.11676932 1433.49985983 -542.710511 1430.0830624 C-550.21934611 1426.19207459 -557.67460569 1422.21995623 -565.085511 1418.1455624 C-573.95231524 1413.27200956 -582.90452016 1408.58224543 -591.89361646 1403.93877529 C-599.62458121 1399.93474945 -607.27385569 1395.79858107 -614.90191725 1391.60259365 C-621.7869946 1387.82818434 -628.734646 1384.18654604 -635.710511 1380.5830624 C-644.5077722 1376.0387103 -653.22642556 1371.37474365 -661.90191725 1366.60259365 C-668.7869946 1362.82818434 -675.734646 1359.18654604 -682.710511 1355.5830624 C-691.5077722 1351.0387103 -700.22642556 1346.37474365 -708.90191725 1341.60259365 C-715.78699501 1337.82818412 -722.73465294 1334.18656018 -729.710511 1330.5830624 C-738.55405292 1326.01460084 -747.32023156 1321.32766408 -756.04254225 1316.53228115 C-762.55436686 1312.96158367 -769.11676932 1309.49985983 -775.710511 1306.0830624 C-783.21934611 1302.19207459 -790.67460569 1298.21995623 -798.085511 1294.1455624 C-806.95231524 1289.27200956 -815.90452016 1284.58224543 -824.89361646 1279.93877529 C-832.62458121 1275.93474945 -840.27385569 1271.79858107 -847.90191725 1267.60259365 C-854.7869946 1263.82818434 -861.734646 1260.18654604 -868.710511 1256.5830624 C-877.5077722 1252.0387103 -886.22642556 1247.37474365 -894.90191725 1242.60259365 C-901.78701334 1238.82817407 -908.73499542 1235.1872483 -915.710511 1231.5830624 C-968.9299967 1204.03081844 -1012.87619058 1171.79001732 -1032.42437818 1112.61870693 C-1033.78536603 1108.22888711 -1034.94072053 1103.79899051 -1036.023011 1099.3330624 C-1036.21790113 1098.53102383 -1036.41279127 1097.72898525 -1036.61358717 1096.90264248 C-1039.95175953 1082.26558792 -1040.50605598 1067.99522915 -1040.4851692 1053.05303311 C-1040.48952578 1050.97492152 -1040.49471205 1048.89681153 -1040.50065687 1046.81870388 C-1040.51395811 1041.21510384 -1040.51463537 1035.61157161 -1040.51209357 1030.00795888 C-1040.51101755 1025.30933026 -1040.5159234 1020.61071501 -1040.52069899 1015.91208928 C-1040.53176406 1004.81452897 -1040.53224888 993.71700251 -1040.52618482 982.61943936 C-1040.52015072 971.21953689 -1040.53244872 959.81975802 -1040.55375489 948.41987663 C-1040.57144405 938.58918639 -1040.57736067 928.75853522 -1040.57411715 918.92782968 C-1040.57231537 913.07555624 -1040.57482872 907.22337094 -1040.58883169 901.3711121 C-1040.60152468 895.86091839 -1040.59935893 890.35091544 -1040.5864208 884.84072422 C-1040.58408001 882.83502755 -1040.58669829 880.82931696 -1040.59504392 878.82363629 C-1040.79469233 827.05109573 -1020.50397375 782.40579242 -984.25684859 745.86295413 C-982.50974432 744.11247051 -980.75791344 742.36680352 -979.00592592 740.62120842 C-977.71077079 739.32335286 -976.41605174 738.02506202 -975.12172365 736.72638168 C-971.58711625 733.18239374 -968.04639566 729.64457097 -964.50457764 726.10779122 C-960.64346204 722.24996088 -956.7881527 718.38633497 -952.93207499 714.52347022 C-946.18059852 707.76171379 -939.4254229 701.00367085 -932.66777494 694.24808239 C-922.61868093 684.20204351 -912.57529256 674.15031477 -902.53295966 664.09751785 C-883.55281814 645.09782013 -864.56560727 626.10519658 -845.57625807 607.11470215 C-843.48386389 605.02217847 -841.3914729 602.9296516 -839.29908469 600.83712196 C-838.77981847 600.31782173 -838.26055225 599.7985215 -837.72555069 599.2634849 C-826.20395488 587.74107116 -814.68414217 576.21687542 -803.16464152 564.6923671 C-798.41711618 559.94278498 -793.66955249 555.19324118 -788.92199656 550.44368964 C-788.39739252 549.91886442 -787.87278848 549.3940392 -787.33228734 548.85331018 C-757.28370377 518.7920844 -727.23292777 488.73305176 -697.17756441 458.67860436 C-696.05356868 457.55464018 -694.92957299 456.43067597 -693.80557735 455.30671171 C-688.73113698 450.23241811 -683.65668183 445.15813929 -678.58222251 440.08386464 C-676.31951565 437.82124003 -674.05680976 435.55861444 -671.79410398 433.29598874 C-670.66158117 432.16350672 -669.52905773 431.03102532 -668.39653366 429.89854454 C-632.58261008 394.08598153 -596.77669599 358.26542878 -560.9773567 322.43828701 C-551.95604267 313.40997062 -542.93469697 304.38168587 -533.91317537 295.35357689 C-533.35764241 294.79763819 -532.80210946 294.24169948 -532.22974217 293.66891415 C-515.10128804 276.52802557 -497.97038126 259.38959129 -480.83697107 242.25365662 C-480.29887263 241.71547827 -479.76077418 241.17729993 -479.20636972 240.62281315 C-467.39253923 228.80727593 -455.57811651 216.99233105 -443.76314782 205.17793199 C-439.53537358 200.95035072 -435.30764378 196.72272501 -431.07993583 192.49507746 C-430.02824588 191.44340334 -428.97655364 190.39173151 -427.9248591 189.34006198 C-411.1865694 172.60212452 -394.4541538 155.85832993 -377.72468309 139.11157834 C-360.40207448 121.77116712 -343.07214092 104.43810765 -325.73385346 87.11337297 C-315.74408805 77.13099552 -305.75987998 67.143135 -295.78362258 57.14725741 C-289.11450576 50.46613465 -282.43811088 43.7923437 -275.75582082 37.12439664 C-271.95192962 33.32826293 -268.15120262 29.52910867 -264.35931772 25.72097884 C-260.9011839 22.24816045 -257.43376513 18.78488869 -253.95910195 15.3286108 C-252.71977441 14.09269071 -251.48369229 12.85350404 -250.25153197 11.6104384 C-187.45823169 -51.70068202 -85.3940445 -63.08355672 0 0 Z " fill="#226DB4" transform="translate(2038.210510995239,85.91693759709597)"/>
<path d="M0 0 C4.28033267 0.0051363 8.56065144 -0.00147097 12.84098206 -0.00648667 C20.32126341 -0.01366744 27.80151582 -0.01351734 35.28179846 -0.00839235 C46.40570381 -0.00079188 57.52958499 -0.0047132 68.65349021 -0.01080896 C88.52684323 -0.0213148 108.40018336 -0.0204379 128.2735376 -0.01465113 C145.66546738 -0.00961203 163.05739244 -0.00831034 180.4493228 -0.01069642 C181.60477617 -0.01084919 182.76022955 -0.01100196 183.95069666 -0.01115936 C188.64153279 -0.01178208 193.33236891 -0.01241888 198.02320504 -0.01307889 C241.99070234 -0.01919136 285.95819144 -0.01365874 329.92568748 -0.0028851 C368.95370682 0.0066055 407.98171311 0.00575621 447.00973234 -0.00380708 C490.89888738 -0.01452569 534.78803519 -0.0187578 578.67719135 -0.01258255 C583.35928164 -0.01194116 588.04137192 -0.01131547 592.7234622 -0.01069642 C594.45262727 -0.01045919 594.45262727 -0.01045919 596.21672497 -0.01021717 C613.59402357 -0.00794608 630.97131692 -0.01059557 648.34861479 -0.01565553 C668.11534197 -0.02138269 687.88205428 -0.01992596 707.64877961 -0.00909404 C718.69967421 -0.00323739 729.75053659 -0.00281504 740.80143033 -0.01038639 C748.19619014 -0.01489233 755.59092428 -0.01204203 762.98568031 -0.00337685 C767.18997642 0.00135043 771.39420883 0.00307131 775.59850279 -0.00418882 C820.69248689 -0.0763095 820.69248689 -0.0763095 840.0863925 4.56943511 C841.03731779 4.7881729 841.98824309 5.00691069 842.9679843 5.23227691 C889.1793637 16.15738813 930.5801091 45.64743694 955.7829257 85.97299956 C957.62822438 89.02615946 959.37747962 92.12569723 961.0863925 95.25693511 C961.43008879 95.88390288 961.77378508 96.51087066 962.12789641 97.15683745 C969.65420434 111.07573917 975.17246837 125.63034004 978.8988925 141.00693511 C979.09378264 141.80897368 979.28867277 142.61101226 979.48946867 143.43735503 C982.55206991 156.86609885 983.37963941 169.99349856 983.32690153 183.70186614 C983.3277757 185.41423037 983.32953055 187.12659433 983.33207987 188.83895688 C983.33651596 193.50255002 983.32860168 198.16604992 983.31852374 202.8296312 C983.30983715 207.87440427 983.31281307 212.91917265 983.31432829 217.9639511 C983.31537386 226.69051533 983.30913162 235.4170495 983.29785261 244.14360617 C983.281556 256.76053292 983.27638536 269.37744523 983.27387663 281.99438136 C983.26950604 302.46756831 983.25621424 322.94073926 983.23727141 343.41391753 C983.21889611 363.29445057 983.20474769 383.17497926 983.19625578 403.05551909 C983.19573033 404.28222042 983.19520489 405.50892174 983.19466352 406.77279584 C983.19205333 412.92717365 983.18952594 419.08155149 983.18703971 425.23592936 C983.16632704 476.24294232 983.13111888 527.24993793 983.0863925 578.25693511 C982.7563925 578.25693511 982.4263925 578.25693511 982.0863925 578.25693511 C981.86725187 577.3739273 981.64811125 576.49091948 981.42233 575.58115386 C976.93719049 558.60690635 968.55120149 545.52815536 953.375455 535.97959136 C938.60074544 528.24129336 921.70219211 525.91314367 905.49654875 530.10459136 C899.53268091 532.11987316 894.07101239 534.99139934 888.53658781 537.95175933 C885.68566853 539.47039369 882.82052725 540.96019202 879.95358 542.44834136 C874.32433095 545.37153551 868.703126 548.30977421 863.0863925 551.25693511 C860.98627608 547.81015623 860.83915465 545.122508 860.84588347 541.12192057 C860.84313477 539.85525087 860.84038607 538.58858117 860.83755407 537.28352754 C860.84464223 535.87501956 860.8519113 534.46651249 860.85934172 533.05800628 C860.8599016 531.56381719 860.85957609 530.06962755 860.85843954 528.57543879 C860.85784735 524.46321529 860.86973401 520.35110683 860.88357935 516.23891007 C860.89630902 511.80580245 860.8974643 507.37269064 860.8999301 502.93956755 C860.90570942 495.25341888 860.91859873 487.5673085 860.93606291 479.88117789 C860.96116287 468.75194317 860.97332315 457.62272267 860.98192964 446.49346432 C860.99607405 428.41615623 861.0176814 410.33886598 861.04537687 392.26157378 C861.0470325 391.17918667 861.04868812 390.09679955 861.05039392 388.98161283 C861.06387478 380.20529716 861.0777168 371.42898207 861.09159956 362.65266703 C861.10369886 354.99723776 861.11566215 347.34180829 861.12740812 339.68637847 C861.12906438 338.60864402 861.13072063 337.53090957 861.13242707 336.4205165 C861.15983766 318.42487519 861.179337 300.42923357 861.19322882 282.43357687 C861.20217455 271.33953425 861.2182203 260.24554528 861.24351845 249.15152767 C861.26042299 241.53955318 861.27016363 233.92759099 861.27436886 226.31559898 C861.27704815 221.9289799 861.28299453 217.54243022 861.29788695 213.15583419 C861.31150022 209.13051273 861.31563343 205.10529094 861.31261573 201.07994863 C861.31315336 199.63296815 861.31702588 198.18598368 861.3248013 196.73902399 C861.43098833 175.99460006 858.54938487 156.34628096 843.8363925 140.50693511 C828.45962576 126.13000297 809.44399007 122.76902479 789.12181578 122.87941169 C787.68397408 122.87627232 786.24613478 122.87182125 784.80830065 122.86619859 C780.89049661 122.85462016 776.97291722 122.86145088 773.05511723 122.87153245 C768.78017067 122.87919089 764.50525669 122.86934379 760.23031483 122.86180245 C752.74884517 122.85099845 745.26744053 122.8512769 737.78596792 122.85894393 C726.66056476 122.87031415 715.53521622 122.86447834 704.4098134 122.85531901 C684.53726734 122.83953681 664.66475025 122.84088497 644.79220145 122.84955574 C627.40126362 122.85710636 610.0103364 122.85907067 592.61939726 122.85548781 C591.46521953 122.85525866 590.3110418 122.8550295 589.12188898 122.8547934 C584.43654886 122.85385937 579.75120874 122.85290416 575.06586863 122.85191411 C531.12571524 122.84273985 487.18558029 122.85105316 443.24542975 122.8672048 C404.21861189 122.88144131 365.19182339 122.88016741 326.16500578 122.86582183 C282.30453281 122.84975331 238.44407612 122.84339052 194.58360062 122.85265862 C189.906863 122.85362075 185.23012537 122.85455927 180.55338774 122.85548781 C179.40187986 122.85572504 178.25037198 122.85596228 177.06396993 122.8562067 C159.68518375 122.8596172 142.30640935 122.85563185 124.9276248 122.84804915 C105.16454656 122.83946907 85.40150178 122.84162082 65.63842771 122.85789138 C54.58163973 122.86669428 43.52492423 122.86728387 32.46813815 122.85595286 C25.07813333 122.84921562 17.6881865 122.85343063 10.29819026 122.86646717 C6.09072462 122.87358795 1.88340275 122.87607616 -2.32405826 122.86524922 C-6.16041201 122.85547824 -9.99649594 122.85978919 -13.83283046 122.8747912 C-15.84431694 122.87918306 -17.85581968 122.8690543 -19.86728128 122.85812836 C-39.83346871 122.98016773 -57.36609581 127.82769587 -71.9136075 142.25693511 C-83.89445237 156.48845102 -87.38027275 171.77717311 -87.29837313 189.99277495 C-87.30248797 191.53831632 -87.3079542 193.08385457 -87.31465425 194.62938689 C-87.3263011 197.93428579 -87.32889177 201.23901806 -87.32429781 204.54393386 C-87.31743427 209.78279486 -87.33344813 215.02144037 -87.35269441 220.26026152 C-87.39040724 231.38414124 -87.40332502 242.50800128 -87.4136075 253.63193511 C-87.42471088 265.6385134 -87.44024226 277.64499071 -87.48432007 289.65150033 C-87.50254635 294.84606182 -87.50661575 300.04037276 -87.49938478 305.2349584 C-87.49784995 308.48173049 -87.50872759 311.72838011 -87.52276316 314.97511863 C-87.5267247 316.46569668 -87.52571226 317.95629882 -87.51899042 319.44686698 C-87.46742851 331.84552833 -88.56284678 344.23112647 -94.4136075 355.38193511 C-94.75545076 356.04443267 -95.09729402 356.70693023 -95.44949617 357.38950347 C-103.6889266 372.56547812 -117.37234348 382.35063976 -133.7261075 387.44443511 C-149.83512883 390.96431969 -166.20570218 388.94716672 -180.593295 380.72568511 C-194.21203632 371.7313762 -205.20631035 358.43423174 -208.9136075 342.25693511 C-209.75879375 337.88460302 -210.04307131 333.74988093 -210.0540494 329.29878997 C-210.05702052 328.6224435 -210.05999164 327.94609704 -210.0630528 327.24925523 C-210.07168601 324.99521064 -210.07324353 322.7412195 -210.07474031 320.48715972 C-210.07937276 318.86519508 -210.084398 317.24323152 -210.08978548 315.62126921 C-210.10288128 311.21952882 -210.1093504 306.81780367 -210.11379614 302.41604685 C-210.11673497 299.65696367 -210.12084156 296.89788458 -210.12530031 294.13880347 C-210.13897563 285.48100902 -210.14863882 276.823224 -210.1525022 268.16541951 C-210.15696556 258.22069049 -210.17443276 248.27610011 -210.2035028 238.3314132 C-210.22525937 230.61637536 -210.23521407 222.90137609 -210.23654332 215.18630796 C-210.23758258 210.59308089 -210.24329844 205.99998411 -210.26136293 201.40678977 C-210.34433494 179.04462282 -210.14617473 157.40303929 -204.2261075 135.63193511 C-203.97192049 134.68302398 -203.71773348 133.73411284 -203.45584383 132.75644683 C-190.90936486 87.82044942 -159.81872621 49.015474 -119.9136075 25.25693511 C-114.69819243 22.34330254 -109.33219037 19.76679934 -103.9136075 17.25693511 C-102.22171297 16.4564273 -102.22171297 16.4564273 -100.49563875 15.63974761 C-68.36511918 1.10002832 -34.65544418 -0.05984427 0 0 Z " fill="#F9B21D" transform="translate(1532.9136075004935,798.743064891547)"/>
</svg>
